<svg width="24" height="24" viewBox="0 0 24 24" fill="none" xmlns="http://www.w3.org/2000/svg">
<path d="M12.0042 5.33594C17.0667 5.33594 21.1709 7.57427 21.1709 10.3359V13.6693C21.1709 16.4309 17.0667 18.6693 12.0042 18.6693C7.03169 18.6693 2.98419 16.5101 2.84169 13.8168L2.83752 13.6693V10.3359C2.83752 7.57427 6.94169 5.33594 12.0042 5.33594ZM12.0042 15.3359C8.90419 15.3359 6.16252 14.4959 4.50419 13.2109V13.6693C4.50419 15.2376 7.74002 17.0026 12.0042 17.0026C16.1792 17.0026 19.3692 15.3109 19.5 13.7676L19.5042 13.6693L19.505 13.2109C17.8467 14.4959 15.105 15.3359 12.0042 15.3359ZM12.0042 7.0026C7.74002 7.0026 4.50419 8.7676 4.50419 10.3359C4.50419 11.9043 7.74002 13.6693 12.0042 13.6693C16.2684 13.6693 19.5042 11.9043 19.5042 10.3359C19.5042 8.7676 16.2684 7.0026 12.0042 7.0026Z" fill="url(#paint0_linear_13_20)"/>
<defs>
<linearGradient id="paint0_linear_13_20" x1="12.0042" y1="5.33594" x2="12.0042" y2="18.6693" gradientUnits="userSpaceOnUse">
<stop stop-color="#FFD561"/>
<stop offset="1" stop-color="#C79200"/>
</linearGradient>
</defs>
</svg>
