<svg width="24" height="24" viewBox="0 0 24 24" fill="none" xmlns="http://www.w3.org/2000/svg">
<path d="M18.875 4.5H13.875C13.7793 4.49999 13.6849 4.52196 13.599 4.56423C13.5131 4.60649 13.4381 4.66791 13.3797 4.74375L8.37972 11.2445L7.62503 10.4914C7.50894 10.3752 7.37108 10.283 7.21933 10.2201C7.06758 10.1572 6.90493 10.1248 6.74066 10.1248C6.57639 10.1248 6.41373 10.1572 6.26198 10.2201C6.11023 10.283 5.97237 10.3752 5.85628 10.4914L4.86487 11.4836C4.74877 11.5997 4.65667 11.7375 4.59384 11.8892C4.531 12.0408 4.49866 12.2034 4.49866 12.3676C4.49866 12.5318 4.531 12.6943 4.59384 12.846C4.65667 12.9977 4.74877 13.1355 4.86487 13.2516L6.42737 14.8141L4.23987 17.0016C4.12377 17.1176 4.03167 17.2555 3.96884 17.4071C3.906 17.5588 3.87366 17.7214 3.87366 17.8855C3.87366 18.0497 3.906 18.2123 3.96884 18.364C4.03167 18.5156 4.12377 18.6535 4.23987 18.7695L5.23128 19.7602C5.46568 19.9944 5.7835 20.126 6.11487 20.126C6.44625 20.126 6.76407 19.9944 6.99847 19.7602L9.18597 17.5727L10.7485 19.1352C10.8646 19.2514 11.0024 19.3436 11.1542 19.4065C11.3059 19.4694 11.4686 19.5018 11.6328 19.5018C11.7971 19.5018 11.9598 19.4694 12.1115 19.4065C12.2633 19.3436 12.4011 19.2514 12.5172 19.1352L13.5086 18.143C13.6247 18.0269 13.7168 17.8891 13.7797 17.7374C13.8425 17.5857 13.8748 17.4232 13.8748 17.259C13.8748 17.0948 13.8425 16.9322 13.7797 16.7806C13.7168 16.6289 13.6247 16.4911 13.5086 16.375L12.7555 15.6219L19.2563 10.6219C19.3323 10.5633 19.3939 10.4881 19.4362 10.4019C19.4784 10.3157 19.5003 10.221 19.5 10.125V5.125C19.5 4.95924 19.4342 4.80027 19.317 4.68306C19.1998 4.56585 19.0408 4.5 18.875 4.5ZM6.11644 18.875L5.12503 17.8844L7.31253 15.6969L8.30316 16.6875L6.11644 18.875ZM11.6328 18.25L5.75003 12.368L6.74222 11.375L12.625 17.2586L11.6328 18.25ZM18.25 9.81719L11.8641 14.7297L11.0094 13.875L14.9422 9.94219C15.0594 9.82491 15.1252 9.66589 15.1251 9.50011C15.125 9.33434 15.0591 9.17537 14.9418 9.0582C14.8246 8.94103 14.6655 8.87525 14.4998 8.87532C14.334 8.87539 14.175 8.94132 14.0578 9.05859L10.125 12.9906L9.27112 12.1359L14.1828 5.75H18.25V9.81719Z" fill="url(#paint0_linear_13_17)"/>
<defs>
<linearGradient id="paint0_linear_13_17" x1="11.6868" y1="4.5" x2="11.6868" y2="20.126" gradientUnits="userSpaceOnUse">
<stop stop-color="#FF8800"/>
<stop offset="1" stop-color="#FF4400"/>
</linearGradient>
</defs>
</svg>
